# xmcd CD database file
#
# Track frame offsets:
#	150
#	16224
#	29337
#	41356
#	54519
#	65296
#	78720
#	93280
#	105127
#	117459
#	130687
#	143981
#	153473
#	166750
#	178914
#	190158
#	202964
#	215385
#	232409
#	246910
#	270720
#
# Disc length: 4440 seconds
#
# Revision: 0
# Processed by: cddbd v1.5.1PL2 Copyright (c) Steve Scherf et al.
# Submitted via: CDex 1.51
#
DISCID=21115615
DTITLE=Various Artist - The Best Country Album in the World Ever - Volume 2 [CD1)
DYEAR=2005
DGENRE=Country
TTITLE0=Kenny Rogers - The Gambler
TTITLE1=Dolly Parton - Here You Come Again
TTITLE2=Glen Cambell - Galverston
TTITLE3=Lynn Anderson - Rose Garden
TTITLE4=Charley Pride - Mississippi Cotton Pickin' Delta Town
TTITLE5=Kenny Dale - Shame, Shame On Me
TTITLE6=Anne Murray - Could I Have This Dance ?
TTITLE7=Johnny Paycheck - Take This Job and Shove It
TTITLE8=Billy Jo Spears - What I've Got In Mind
TTITLE9=Charlie Rich - Behind Closed Doors
TTITLE10=Crystal Gayle - Why Have You Left The One You Left Me For
TTITLE11=Tom T Hall - I Love
TTITLE12=Tammy Wynette - D-I-V-O-R-C-E
TTITLE13=Freddy Fender - Wasted Days And Wasted Nights
TTITLE14=Donna Fargo - The Happiest Girl In The Whole USA
TTITLE15=Col Joye - Heaven Is My Woman's Love
TTITLE16=LA Costa - Get On My Love Train
TTITLE17=C.W. McCall - Convoy
TTITLE18=Jeanne Pruett - Satin Sheets
TTITLE19=Tommy Overstreet - Gwen (Congratulations)
TTITLE20=/ Data
EXTD=YEAR: 2005
EXTT0=
EXTT1=
EXTT2=
EXTT3=
EXTT4=
EXTT5=
EXTT6=
EXTT7=
EXTT8=
EXTT9=
EXTT10=
EXTT11=
EXTT12=
EXTT13=
EXTT14=
EXTT15=
EXTT16=
EXTT17=
EXTT18=
EXTT19=
EXTT20=
PLAYORDER=
